<svg version="1.1" id="Layer_1" xmlns="http://www.w3.org/2000/svg" xmlns:xlink="http://www.w3.org/1999/xlink" x="0px" y="0px"
	 width="100%" viewBox="0 0 1200 400" enable-background="new 0 0 1200 400" xml:space="preserve">
<path fill="#FFFFFF" opacity="1.000000" stroke="none" 
	d="
M769.000000,401.000000 
	C512.666687,401.000000 256.833344,401.000000 1.000000,401.000000 
	C1.000000,267.666656 1.000000,134.333328 1.000000,1.000000 
	C401.000000,1.000000 801.000000,1.000000 1201.000000,1.000000 
	C1201.000000,134.333328 1201.000000,267.666656 1201.000000,401.000000 
	C1057.166626,401.000000 913.333313,401.000000 769.000000,401.000000 
M259.500000,87.245705 
	C239.506561,87.245674 219.513123,87.245277 199.519684,87.245750 
	C187.856827,87.246025 176.193329,87.173485 164.531357,87.275528 
	C157.091965,87.340622 154.044342,90.389267 154.004730,97.497986 
	C153.962936,104.995300 153.994385,112.493027 153.995331,119.990578 
	C153.996628,130.352417 156.535828,132.879684 166.988495,132.880157 
	C230.301132,132.883011 293.613770,132.881607 356.926422,132.881378 
	C357.926086,132.881378 358.927246,132.913544 359.925171,132.871109 
	C366.699707,132.583054 369.947632,129.293304 369.992676,122.542366 
	C370.043762,114.878540 370.007660,107.214127 370.004059,99.549965 
	C369.999512,89.770485 367.447571,87.251488 357.468292,87.248978 
	C325.145538,87.240837 292.822754,87.246033 259.500000,87.245705 
M215.500000,153.870392 
	C208.167465,153.874588 200.833878,153.804428 193.502716,153.907181 
	C187.931702,153.985260 185.059174,156.708969 184.994431,162.108444 
	C184.880539,171.606033 184.973602,181.106018 184.960953,190.604965 
	C184.955780,194.485687 187.087402,196.880798 190.525650,197.994446 
	C192.534409,198.645065 194.766525,198.840317 196.898483,198.842056 
	C250.726074,198.885773 304.553711,198.877075 358.381317,198.873306 
	C359.546875,198.873230 360.728088,198.936020 361.875397,198.777267 
	C367.628662,197.981323 370.020142,195.278809 370.050781,189.463242 
	C370.093781,181.297668 370.066528,173.131699 370.062347,164.965897 
	C370.057587,155.674286 368.276093,153.875153 358.984863,153.873825 
	C311.489899,153.866989 263.994965,153.870392 215.500000,153.870392 
M304.500000,264.999115 
	C323.327972,264.999023 342.156006,265.020599 360.983917,264.986908 
	C367.426117,264.975372 370.087494,262.327118 370.116425,255.974030 
	C370.157410,246.976761 370.153717,237.979095 370.120239,228.981766 
	C370.095398,222.295944 367.865601,220.000122 361.097778,219.994064 
	C321.442444,219.958588 281.786987,219.959076 242.131622,219.995911 
	C235.770828,220.001831 233.000000,222.817230 232.959152,229.129227 
	C232.903122,237.793060 232.920502,246.457642 232.952805,255.121719 
	C232.979111,262.173523 235.855225,264.989319 243.017166,264.994202 
	C263.178101,265.007935 283.339050,264.999054 304.500000,264.999115 
M261.821289,309.498566 
	C261.827179,313.992920 261.738037,318.489899 261.864014,322.980896 
	C262.007477,328.094513 264.899475,331.054108 269.951782,331.062653 
	C300.247070,331.113800 330.542450,331.109100 360.837738,331.065796 
	C365.732819,331.058807 369.041687,328.018860 369.143951,323.068512 
	C369.343323,313.418457 369.337372,303.759033 369.157959,294.108307 
	C369.063354,289.020050 366.016388,286.041077 360.926361,286.027435 
	C330.631256,285.946228 300.335754,285.942505 270.040619,286.020416 
	C264.642578,286.034302 261.953033,289.000671 261.845978,294.517975 
	C261.755585,299.177063 261.823273,303.839203 261.821289,309.498566 
M671.269470,162.411514 
	C672.451172,163.608414 673.570312,165.756500 674.825256,165.838928 
	C680.508423,166.212250 686.229980,166.002228 692.654053,166.002228 
	C689.927734,161.686768 687.726868,158.200424 685.523376,154.715775 
	C683.237122,151.100235 680.948181,147.486343 678.676453,143.897003 
	C689.031799,136.690765 692.594116,127.857857 690.082275,115.996384 
	C687.978516,106.061455 681.049072,100.316978 671.701416,99.531494 
	C658.871155,98.453384 645.882324,99.261787 632.755432,99.261787 
	C632.755432,121.261818 632.755432,143.506500 632.755432,165.771454 
	C638.452148,165.771454 643.887756,165.771454 649.750671,165.771454 
	C649.750671,162.588074 649.750671,159.627014 649.750671,156.665955 
	C649.750671,153.556870 649.750671,150.447784 649.750671,147.405701 
	C662.704712,146.136215 662.704529,146.136307 668.384460,156.864426 
	C669.239868,158.480270 670.098083,160.094650 671.269470,162.411514 
M789.328003,225.009094 
	C793.767517,224.114670 796.323792,225.974976 798.012512,230.142960 
	C799.625916,234.125183 801.875366,237.863068 804.022156,241.606934 
	C804.589783,242.596832 805.785522,243.859116 806.733948,243.894501 
	C812.449280,244.107712 818.176697,244.000473 824.654236,244.000473 
	C819.676392,236.127487 815.190735,229.032990 810.724365,221.968903 
	C821.427856,214.158905 825.034668,204.445419 821.855408,192.647766 
	C819.330811,183.279495 811.180420,177.485489 798.406616,176.759979 
	C789.607727,176.260239 780.765747,176.514679 771.942932,176.442169 
	C769.534363,176.422379 767.125488,176.439163 764.702148,176.439163 
	C764.702148,199.360718 764.702148,221.464706 764.702148,243.663971 
	C770.441467,243.663971 775.971313,243.663971 781.769043,243.663971 
	C781.769043,237.380249 781.769043,231.437912 781.769043,225.009094 
	C784.153748,225.009094 786.271362,225.009094 789.328003,225.009094 
M565.321899,104.766373 
	C546.666321,117.512741 546.622925,146.319214 564.988647,159.602371 
	C574.315857,166.348297 584.721436,167.928635 595.854309,166.011383 
	C610.901001,163.420151 623.066162,150.425919 624.093201,135.833176 
	C625.299316,118.694077 616.524597,104.937813 600.797363,99.982155 
	C588.597534,96.137985 576.821289,97.211723 565.321899,104.766373 
M750.290894,166.009628 
	C751.887573,166.009628 753.484192,166.009628 755.028931,166.009628 
	C755.028931,161.209061 755.028931,156.968109 755.028931,152.248352 
	C742.790527,152.248352 730.893311,152.248352 718.912231,152.248352 
	C718.912231,147.649902 718.912231,143.539490 718.912231,138.861603 
	C729.611145,138.861603 740.165100,138.861603 750.580505,138.861603 
	C750.580505,134.058365 750.580505,129.829834 750.580505,125.152374 
	C739.822998,125.152374 729.414856,125.152374 718.950928,125.152374 
	C718.950928,120.594055 718.950928,116.502251 718.950928,112.032959 
	C730.742310,112.032959 742.342896,112.032959 754.060547,112.032959 
	C754.060547,107.386055 754.060547,103.122139 754.060547,98.853027 
	C736.440125,98.853027 719.076721,98.853027 701.720825,98.853027 
	C701.720825,121.390915 701.720825,143.513214 701.720825,166.009628 
	C717.740906,166.009628 733.539795,166.009628 750.290894,166.009628 
M750.075439,230.497009 
	C739.465820,230.497009 728.856201,230.497009 718.001831,230.497009 
	C718.001831,225.840729 718.001831,221.608032 718.001831,216.813736 
	C728.673645,216.813736 739.216553,216.813736 749.565308,216.813736 
	C749.565308,212.025391 749.565308,207.801743 749.565308,203.140793 
	C738.802368,203.140793 728.404785,203.140793 717.944824,203.140793 
	C717.944824,198.597473 717.944824,194.508743 717.944824,190.063782 
	C729.726074,190.063782 741.322021,190.063782 753.083252,190.063782 
	C753.083252,185.441635 753.083252,181.179688 753.083252,176.803009 
	C735.503601,176.803009 718.157227,176.803009 700.820129,176.803009 
	C700.820129,199.380875 700.820129,221.592285 700.820129,243.839111 
	C718.751526,243.839111 736.359253,243.839111 754.373474,243.839111 
	C754.373474,240.204636 754.632996,236.704102 754.217651,233.285553 
	C754.090637,232.240341 752.110168,231.420334 750.075439,230.497009 
M469.549133,188.037674 
	C464.580841,193.643539 459.612579,199.249420 453.833649,205.769958 
	C453.833649,195.201630 453.833649,186.075592 453.833649,176.698929 
	C448.162842,176.698929 442.738861,176.698929 437.068237,176.698929 
	C437.068237,199.106140 437.068237,221.338196 437.068237,243.666687 
	C442.734222,243.666687 448.270844,243.666687 454.186096,243.666687 
	C453.318481,233.660583 452.698853,223.944611 463.285950,218.120865 
	C468.385498,225.661514 473.541595,233.388077 478.839752,241.015991 
	C479.688568,242.238098 481.134003,243.809662 482.369507,243.869965 
	C488.420471,244.165298 494.493744,244.003876 501.265564,244.003876 
	C492.078369,230.384705 483.376556,217.485077 474.585571,204.453278 
	C482.824371,195.244370 490.864777,186.257233 499.645111,176.443024 
	C497.393097,176.443024 496.262024,176.602692 495.190125,176.418335 
	C484.334686,174.551239 475.712921,177.687210 469.549133,188.037674 
M525.005798,229.483185 
	C525.005798,225.378464 525.005798,221.273743 525.005798,216.806732 
	C535.932983,216.806732 546.354309,216.806732 556.812561,216.806732 
	C556.812561,212.179886 556.812561,207.941284 556.812561,203.278625 
	C546.132629,203.278625 535.724121,203.278625 525.271484,203.278625 
	C525.271484,198.621445 525.271484,194.403915 525.271484,189.818420 
	C537.167664,189.818420 548.755249,189.818420 560.344360,189.818420 
	C560.344360,185.217941 560.344360,181.003220 560.344360,176.688522 
	C542.723267,176.688522 525.457764,176.688522 508.058105,176.688522 
	C508.058105,199.180527 508.058105,221.421402 508.058105,243.691376 
	C526.018616,243.691376 543.738831,243.691376 561.554688,243.691376 
	C561.554688,239.268631 561.554688,235.166367 561.554688,230.345688 
	C549.415039,230.345688 537.464294,230.345688 525.005798,229.483185 
M602.506226,216.936890 
	C608.614258,216.936890 614.722290,216.936890 620.784058,216.936890 
	C620.784058,212.135147 620.784058,207.896561 620.784058,203.230316 
	C610.079773,203.230316 599.676025,203.230316 589.296997,203.230316 
	C589.296997,198.566925 589.296997,194.352890 589.296997,189.767029 
	C601.217285,189.767029 612.802551,189.767029 624.317261,189.767029 
	C624.317261,185.164658 624.317261,180.953491 624.317261,176.708786 
	C606.668335,176.708786 589.402588,176.708786 572.085571,176.708786 
	C572.085571,199.223038 572.085571,221.465454 572.085571,243.664215 
	C590.071045,243.664215 607.788269,243.664215 625.525757,243.664215 
	C625.525757,239.216904 625.525757,235.118530 625.525757,230.438950 
	C613.277039,230.438950 601.240845,230.438950 589.263489,230.438950 
	C589.263489,225.607529 589.263489,221.368805 589.263489,216.936890 
	C593.547302,216.936890 597.528076,216.936890 602.506226,216.936890 
M464.342438,124.294601 
	C461.614471,123.101837 458.622833,122.274529 456.262787,120.571823 
	C454.960266,119.632118 453.888519,117.032234 454.234955,115.532379 
	C454.566864,114.095299 456.707611,112.512833 458.341522,112.078651 
	C460.505524,111.503624 463.083679,111.500389 465.247589,112.101662 
	C471.119141,113.733154 476.866058,115.813011 483.153442,117.876236 
	C485.026123,114.032936 487.100555,109.775627 489.744720,104.349068 
	C483.196014,102.225296 477.245270,99.526772 471.014801,98.456985 
	C461.917206,96.894890 452.684387,97.083496 444.456940,102.392982 
	C437.966431,106.581558 435.144867,112.637131 435.972260,120.301903 
	C436.725128,127.276543 440.586975,131.949448 447.111237,134.303894 
	C452.259308,136.161697 457.483948,137.818451 462.716431,139.428406 
	C469.343750,141.467560 472.056335,144.130310 471.217102,148.041977 
	C470.435425,151.685349 465.903900,153.991882 459.845734,152.285858 
	C452.353729,150.176071 445.192078,146.893204 437.593079,144.005203 
	C435.961487,147.250763 433.889709,151.371948 431.854401,155.420578 
	C443.019531,165.887527 464.217529,169.676758 477.382629,163.715454 
	C485.580536,160.003342 489.715027,153.669937 489.441650,145.354721 
	C489.152802,136.569901 484.216003,131.242981 476.471771,128.197525 
	C472.771790,126.742485 468.875549,125.786560 464.342438,124.294601 
M663.466919,225.006577 
	C667.263794,224.652115 671.145752,224.683975 674.841675,223.870712 
	C685.903931,221.436493 692.403198,212.725311 692.656616,200.542175 
	C692.900452,188.822418 687.123230,179.716995 675.729736,178.063324 
	C662.732849,176.176895 649.414062,176.508621 636.270996,175.878098 
	C636.270996,199.334732 636.270996,221.552231 636.270996,243.770813 
	C641.965149,243.770813 647.378540,243.770813 653.201294,243.770813 
	C653.201294,237.477753 653.201294,231.407578 653.201294,225.006653 
	C656.570862,225.006653 659.534424,225.006653 663.466919,225.006577 
M529.008972,121.548607 
	C529.008972,118.472542 529.008972,115.396477 529.008972,111.975204 
	C536.186768,111.975204 542.602356,111.975204 548.880615,111.975204 
	C548.880615,107.219696 548.880615,102.847183 548.880615,98.521095 
	C529.715698,98.521095 510.959045,98.521095 492.034332,98.521095 
	C492.034332,103.127380 492.034332,107.518227 492.034332,112.350723 
	C498.730957,112.350723 505.148010,112.350723 512.067688,112.350723 
	C512.067688,130.481049 512.067688,148.174026 512.067688,165.709808 
	C517.996216,165.709808 523.404053,165.709808 529.008972,165.709808 
	C529.008972,151.121262 529.008972,136.827606 529.008972,121.548607 
M441.782257,320.510986 
	C443.531860,323.471161 445.079529,322.659851 446.452026,320.215149 
	C448.105133,317.270691 449.693329,314.289825 451.309631,311.324738 
	C451.581635,311.399506 451.853668,311.474304 452.125671,311.549072 
	C452.125671,315.936768 452.125671,320.324463 452.125671,324.712158 
	C452.609619,324.976379 453.093567,325.240601 453.577515,325.504852 
	C454.353577,324.481934 455.766296,323.480286 455.801331,322.432587 
	C456.011780,316.142334 455.905701,309.841522 455.905701,302.795441 
	C447.597504,304.264923 448.643982,312.971436 443.955322,316.522949 
	C439.387360,312.889587 440.338318,304.299438 432.247742,302.690887 
	C432.247742,310.646454 432.247742,317.587219 432.247742,324.863983 
	C433.339569,324.863983 435.069489,324.952759 435.080750,324.851196 
	C435.571381,320.420593 435.909943,315.973114 436.339539,310.622589 
	C438.299194,314.230011 439.849152,317.083252 441.782257,320.510986 
M499.953247,317.588318 
	C502.794281,319.979004 503.496674,325.116394 508.703888,324.921143 
	C508.703888,317.476929 508.703888,310.528900 508.703888,303.245514 
	C503.449310,302.733307 505.419006,306.644257 505.176605,308.743347 
	C504.869995,311.399139 505.102600,314.117188 505.102600,317.490540 
	C499.750549,312.435272 497.201050,306.056885 490.339996,301.888824 
	C490.339996,309.955597 490.238251,316.400269 490.453949,322.834259 
	C490.484894,323.757111 492.047913,324.628601 492.901855,325.523865 
	C493.286102,325.275757 493.670380,325.027649 494.054626,324.779510 
	C494.054626,322.479034 494.054626,320.178558 494.054626,317.878082 
	C494.054626,315.672089 494.054626,313.466095 494.054626,310.175842 
	C496.422455,313.146729 497.965179,315.082336 499.953247,317.588318 
M806.079651,317.468323 
	C806.244263,316.316650 806.567993,315.162079 806.547180,314.013763 
	C806.425781,307.303162 801.567810,302.719269 794.983704,303.014709 
	C788.447021,303.307983 784.075928,308.393585 784.592773,315.104065 
	C784.987122,320.224457 788.247620,324.077332 792.957947,324.989105 
	C798.747925,326.109863 802.718872,324.035309 806.079651,317.468323 
M826.840820,318.269623 
	C825.456726,316.776764 825.230469,315.862854 827.137512,314.127441 
	C831.336060,310.306793 829.738586,304.854736 824.163147,303.683014 
	C821.047485,303.028290 817.744934,303.262756 814.382080,303.089050 
	C814.382080,310.771942 814.382080,317.697388 814.382080,324.939911 
	C815.782654,324.874420 816.980103,324.818420 818.148743,324.763794 
	C818.344421,321.868561 818.515442,319.337250 818.686523,316.805939 
	C819.192383,316.579071 819.698242,316.352173 820.204102,316.125305 
	C821.680725,318.057037 822.976624,320.171326 824.688538,321.865234 
	C826.175537,323.336639 828.133179,324.332367 829.882874,325.538300 
	C830.202942,325.112366 830.523010,324.686432 830.843079,324.260498 
	C829.638306,322.488647 828.433533,320.716827 826.840820,318.269623 
M551.071350,303.190002 
	C549.701111,303.770111 548.214661,304.169556 546.981628,304.962952 
	C542.648254,307.751190 541.157104,314.178864 543.543701,319.224274 
	C545.950378,324.312164 551.946228,326.530426 558.095581,324.716095 
	C564.325867,322.877960 561.074524,318.134644 561.738953,314.225342 
	C560.052795,314.141571 558.760864,314.023254 557.469727,314.031097 
	C556.507385,314.036957 555.546021,314.206024 553.599304,314.401123 
	C554.691162,315.688049 555.297485,316.397980 555.898560,317.112427 
	C556.584167,317.927368 557.984863,319.031708 557.797668,319.503906 
	C557.412109,320.476379 556.285156,321.565491 555.272766,321.806763 
	C551.196045,322.778381 547.627136,320.221649 546.895447,316.092621 
	C545.639038,309.002777 550.149048,305.293060 557.471130,307.221954 
	C558.559937,307.508789 559.894348,306.863678 561.115112,306.649750 
	C560.318237,305.759155 559.667542,304.361511 558.694763,304.081055 
	C556.509949,303.451233 554.165283,303.376068 551.071350,303.190002 
M681.971741,303.715363 
	C677.613647,303.436584 673.255615,303.157806 668.587280,302.859192 
	C668.587280,310.615295 668.587280,317.670532 668.587280,324.791809 
	C673.264404,324.791809 677.667664,324.791809 682.650330,324.791809 
	C680.564209,319.322174 675.737427,323.320251 672.963257,321.096222 
	C672.963257,319.536957 672.963257,317.802979 672.963257,315.772614 
	C674.579468,315.772614 675.937134,315.990814 677.179077,315.705414 
	C678.222900,315.465607 679.131897,314.639252 680.100586,314.072479 
	C679.128418,313.508789 678.216736,312.708435 677.168945,312.440338 
	C675.806702,312.091766 674.336304,312.166168 672.952271,312.061523 
	C672.952271,310.078033 672.952271,308.502197 672.952271,306.569000 
	C675.214417,306.569000 677.226135,306.805939 679.140686,306.476868 
	C680.226013,306.290314 681.151917,305.175690 681.971741,303.715363 
M725.327698,311.483215 
	C725.327698,310.035461 725.327698,308.587708 725.327698,307.405457 
	C728.307739,305.100800 733.217834,308.630829 735.643250,303.456116 
	C730.182312,303.456116 725.788757,303.456116 721.283936,303.456116 
	C721.283936,310.711578 721.283936,317.629883 721.283936,324.795959 
	C725.892517,324.795959 730.307129,324.795959 735.301514,324.795959 
	C733.477722,318.964630 728.119873,323.731110 725.453125,320.840576 
	C725.453125,319.530243 725.453125,317.945526 725.453125,315.729156 
	C727.353638,315.729156 729.149170,315.880432 730.896790,315.656769 
	C731.624634,315.563629 732.250122,314.671539 732.922180,314.142761 
	C732.293396,313.577728 731.734558,312.660919 731.021545,312.519012 
	C729.412048,312.198608 727.726257,312.261353 725.327698,311.483215 
M533.926392,317.436310 
	C532.333679,313.445557 530.838501,309.411011 529.079773,305.494781 
	C528.638428,304.512146 527.401367,303.373871 526.438354,303.283569 
	C525.485657,303.194244 523.855591,304.103912 523.489075,304.979767 
	C520.780457,311.451538 518.313538,318.024445 515.770569,324.565552 
	C516.113525,324.906799 516.456543,325.248077 516.799500,325.589355 
	C518.042603,324.710358 520.114319,324.028290 520.378540,322.916656 
	C521.289062,319.085480 524.043823,319.869080 526.596069,319.749939 
	C529.007568,319.637360 530.990906,319.685181 531.981201,322.674255 
	C532.393188,323.917633 534.466980,324.610443 535.785095,325.553589 
	C536.062744,325.213409 536.340393,324.873260 536.618042,324.533081 
	C535.790710,322.412994 534.963379,320.292938 533.926392,317.436310 
M478.316620,311.045013 
	C477.598022,309.196564 477.094574,307.217743 476.082275,305.547302 
	C475.449005,304.502289 474.106079,303.426666 472.974792,303.297119 
	C472.143005,303.201843 470.681793,304.428925 470.284302,305.390503 
	C467.663757,311.730591 465.255615,318.158508 462.778229,324.557770 
	C463.142151,324.905029 463.506073,325.252258 463.870026,325.599518 
	C465.151062,324.578461 467.216766,323.769348 467.560883,322.495239 
	C468.467499,319.138702 470.826141,319.786316 473.056274,319.776276 
	C475.451141,319.765503 477.953308,319.148804 478.969604,322.637573 
	C479.329895,323.874420 481.430176,324.604462 482.736084,325.565857 
	C483.029541,325.224823 483.323029,324.883789 483.616486,324.542755 
	C481.973083,320.270721 480.329681,315.998657 478.316620,311.045013 
M622.649475,319.140686 
	C621.954529,320.940948 621.259644,322.741180 620.564697,324.541443 
	C620.922424,324.889557 621.280212,325.237640 621.638000,325.585754 
	C622.900208,324.555145 624.911377,323.738373 625.278625,322.452209 
	C626.227539,319.128906 628.595337,319.811859 630.819031,319.767151 
	C633.253174,319.718201 635.691284,319.244934 636.721802,322.668182 
	C637.087769,323.884155 639.185974,324.578735 640.493408,325.511322 
	C638.890198,318.140839 636.515137,311.776672 633.870117,305.526672 
	C633.425598,304.476318 631.866516,303.423523 630.723267,303.301544 
	C629.893494,303.213013 628.479858,304.474945 628.052368,305.452240 
	C626.193481,309.701965 624.600586,314.068054 622.649475,319.140686 
M580.084595,303.134888 
	C576.814575,303.134888 573.544617,303.134888 570.219727,303.134888 
	C570.219727,310.713593 570.219727,317.753479 570.219727,324.709412 
	C574.881348,324.709412 579.255615,324.709412 584.494019,324.709412 
	C581.686279,319.694702 577.220276,323.127777 574.380676,321.392609 
	C574.380676,319.605194 574.380676,317.724213 574.380676,315.711487 
	C576.379395,315.711487 578.063110,315.880859 579.683594,315.634552 
	C580.409668,315.524200 581.009094,314.580841 581.665955,314.015472 
	C580.966248,313.494873 580.312256,312.622833 579.557617,312.524750 
	C577.830200,312.300201 576.053711,312.453705 574.325439,312.453705 
	C574.325439,310.161591 574.325439,308.415375 574.325439,306.496796 
	C576.765930,306.496796 578.935852,306.644012 581.069092,306.428314 
	C581.993103,306.334869 582.841553,305.493347 583.724304,304.991608 
	C582.805786,304.372894 581.887268,303.754150 580.084595,303.134888 
M881.680908,324.970886 
	C885.969666,324.970886 890.258423,324.970886 895.268738,324.970886 
	C892.997131,319.209900 887.947815,323.525269 885.254517,321.224243 
	C885.254517,319.480377 885.254517,317.695679 885.254517,316.528412 
	C887.965515,315.710510 890.316101,315.001312 892.666748,314.292145 
	C890.322327,313.389679 887.977905,312.487183 885.232605,311.430389 
	C885.232605,310.400421 885.232605,308.628174 885.232605,306.494781 
	C887.708008,306.494781 890.009338,306.648254 892.271301,306.416748 
	C893.135742,306.328308 893.909973,305.358856 894.725342,304.790894 
	C893.905457,304.239868 893.106934,303.254730 892.261963,303.213196 
	C888.658997,303.036011 885.042297,303.137817 881.002136,303.137817 
	C881.002136,310.450287 881.002136,317.366608 881.680908,324.970886 
M933.840027,313.527802 
	C932.943787,313.105255 932.054749,312.666443 931.149841,312.263428 
	C929.192627,311.391724 925.831604,311.440643 927.117859,308.133087 
	C927.474304,307.216614 930.700623,307.446136 932.598572,307.088074 
	C933.753113,306.870209 934.885376,306.534027 937.056519,305.996094 
	C935.214966,304.721893 934.723450,304.249359 934.137085,303.996887 
	C929.358032,301.939148 924.423584,303.349731 923.049622,307.127502 
	C921.617798,311.064331 923.302673,313.576355 928.836792,315.734222 
	C929.451416,315.973907 930.326477,315.973419 930.664124,316.408020 
	C931.390015,317.342377 932.465820,318.648804 932.244446,319.504211 
	C931.995483,320.465973 930.528931,321.638123 929.495056,321.740662 
	C928.145142,321.874512 926.715637,320.804352 925.290771,320.712830 
	C924.171631,320.640930 923.007568,321.267700 921.074036,321.802368 
	C926.934692,325.815887 931.679138,326.181030 934.397400,323.171509 
	C937.018005,320.270142 937.545349,317.039551 933.840027,313.527802 
M910.955200,312.550751 
	C909.316223,311.087524 907.677246,309.624268 906.038269,308.161072 
	C908.074219,307.854462 910.124634,307.619629 912.140198,307.212219 
	C913.213379,306.995300 914.226257,306.479767 916.146912,305.776703 
	C914.362793,304.681152 913.719177,304.154938 912.983276,303.855469 
	C908.412842,301.995331 903.766113,303.415771 902.300598,307.071960 
	C900.773438,310.881836 902.561584,313.585815 908.022278,315.701691 
	C908.638123,315.940338 909.497009,315.935242 909.859192,316.365967 
	C910.631104,317.284149 911.799194,318.563721 911.602417,319.418274 
	C911.379150,320.387604 909.907043,321.588806 908.858154,321.718140 
	C907.518677,321.883331 906.075012,320.860809 904.646790,320.757660 
	C903.497253,320.674683 902.303955,321.197083 900.140442,321.664856 
	C906.570251,326.170105 911.987183,326.017120 914.588867,322.162231 
	C916.957092,318.653259 915.998352,315.609436 910.955200,312.550751 
M690.447693,305.923126 
	C688.442078,311.900146 689.071838,312.794983 696.189575,316.016693 
	C697.452759,316.588470 698.119019,318.479065 699.060852,319.760651 
	C697.555542,320.428772 696.100037,321.335297 694.523926,321.664032 
	C693.741150,321.827301 692.734375,320.591766 691.833984,320.599335 
	C690.765259,320.608246 689.701965,321.273834 688.070374,321.857208 
	C692.053162,325.374725 695.824829,326.298248 699.401611,324.195312 
	C701.187439,323.145355 702.726013,320.435059 702.995728,318.301239 
	C703.580383,313.675446 699.407043,313.130920 696.270691,311.672028 
	C695.060791,311.109253 694.365479,309.440308 693.435730,308.275330 
	C695.010010,307.757416 696.552734,307.062744 698.168030,306.774597 
	C699.590332,306.520844 701.093689,306.721527 702.561279,306.721527 
	C697.782166,302.087006 695.680786,302.081024 690.447693,305.923126 
M601.262268,307.948944 
	C600.369080,313.382568 604.290405,314.547882 608.139343,316.079132 
	C609.338623,316.556213 610.040771,318.282806 610.970520,319.437408 
	C609.530334,320.240784 608.164856,321.368469 606.621521,321.723938 
	C605.718872,321.931793 604.568054,320.700470 603.461060,320.509125 
	C602.716553,320.380402 601.853271,320.938202 601.043152,321.188873 
	C601.314453,322.004761 601.572754,322.825470 601.871460,323.631256 
	C601.914795,323.748260 602.149231,323.859619 602.297668,323.862915 
	C605.475342,323.932770 608.898621,324.714478 611.735107,323.758545 
	C613.319702,323.224487 615.170166,319.430115 614.674500,317.769196 
	C614.013550,315.554260 611.237671,313.929260 609.261047,312.173737 
	C608.684937,311.662048 607.571594,311.753418 606.999084,311.239899 
	C606.222534,310.543304 605.027832,309.152496 605.255798,308.729431 
	C605.788391,307.740967 606.970947,306.780640 608.063538,306.511169 
	C609.055908,306.266449 610.279358,307.166718 611.396667,307.155060 
	C612.295410,307.145721 613.187744,306.527832 614.082947,306.179962 
	C613.595032,305.453613 613.270020,304.464081 612.592102,304.044556 
	C608.820007,301.710175 604.541260,303.000153 601.262268,307.948944 
M766.488098,325.061859 
	C767.206116,324.242889 768.404541,323.497894 768.544434,322.589844 
	C768.857117,320.560608 768.642212,318.450043 768.642212,316.152618 
	C771.171509,316.152618 773.009949,316.301086 774.802490,316.079285 
	C775.515930,315.991028 776.128052,315.083405 776.786255,314.548798 
	C776.164307,313.993408 775.587952,313.035614 774.911804,312.959137 
	C772.986206,312.741394 771.019897,312.882690 769.016052,312.882690 
	C769.016052,310.530212 769.016052,308.656097 769.016052,306.812561 
	C778.009949,306.192139 778.009949,306.192139 777.393188,303.473938 
	C773.081299,303.473938 768.851013,303.473938 764.305054,303.473938 
	C764.305054,309.647125 764.229797,315.442657 764.363586,321.233398 
	C764.393127,322.510468 765.163818,323.770447 766.488098,325.061859 
M852.733826,306.608368 
	C854.997742,304.339111 854.239746,303.217285 851.321838,303.134308 
	C848.176147,303.044830 845.006775,302.904358 841.885315,303.192810 
	C840.097351,303.358032 838.384033,304.331879 836.637085,304.941650 
	C838.415527,305.558807 840.196106,306.170197 841.970398,306.799011 
	C842.253296,306.899292 842.508545,307.077820 843.061340,307.371399 
	C843.061340,312.993500 843.061340,318.758362 843.061340,324.779175 
	C844.568420,324.779175 845.783630,324.779175 847.258911,324.779175 
	C847.258911,318.857727 847.258911,313.097534 847.258911,307.006683 
	C848.932861,306.893036 850.379944,306.794800 852.733826,306.608368 
M969.535828,318.696930 
	C969.535828,320.672028 969.535828,322.647125 969.535828,324.565796 
	C972.404602,325.551270 973.507690,325.172363 973.890381,321.971039 
	C974.341492,318.197815 975.718384,314.473236 977.125488,310.897400 
	C978.125549,308.356018 979.839722,306.095673 981.502625,303.252838 
	C973.881775,302.645172 975.172424,310.272247 971.609253,312.537476 
	C968.127747,309.943665 969.041382,302.890717 961.942627,303.105713 
	C964.708679,308.479004 967.116699,313.156799 969.535828,318.696930 
M747.017395,321.443481 
	C747.017395,319.697906 747.017395,317.952332 747.017395,316.095123 
	C749.566467,316.095123 751.407227,316.239197 753.204163,316.021515 
	C753.886230,315.938843 754.467346,315.023315 755.094421,314.487396 
	C754.449890,313.970245 753.845154,313.081116 753.153198,313.007141 
	C751.233704,312.801849 749.277893,312.935974 747.255676,312.935974 
	C747.255676,310.508484 747.255676,308.582336 747.255676,306.432007 
	C749.981384,306.432007 752.480835,306.556488 754.951660,306.345520 
	C755.579224,306.291962 756.115662,305.171631 756.693970,304.541473 
	C756.111511,304.088257 755.540222,303.260437 754.944702,303.242554 
	C751.023865,303.124969 747.097717,303.181854 743.147461,303.181854 
	C743.147461,310.752075 743.147461,317.693237 743.147461,324.634399 
	C743.533081,324.915924 743.918762,325.197479 744.304382,325.479034 
	C745.208618,324.443329 746.112793,323.407654 747.017395,321.443481 
M652.608154,306.915710 
	C652.172424,303.073914 652.172424,303.073914 648.673340,303.842560 
	C648.673340,310.868622 648.673340,317.872833 648.673340,324.906342 
	C652.986938,324.906342 656.915344,324.906342 661.333557,324.906342 
	C660.490906,318.791382 655.182617,323.400879 652.608215,320.323242 
	C652.608215,316.694702 652.608215,312.262970 652.608154,306.915710 
M865.001465,305.857361 
	C864.095215,304.820679 863.189026,303.783997 862.282837,302.747314 
	C861.948486,303.054016 861.614136,303.360748 861.279785,303.667450 
	C861.279785,310.728516 861.279785,317.789581 861.279785,324.822937 
	C865.559021,324.822937 869.522644,324.822937 874.124084,324.822937 
	C872.381775,319.544922 867.746338,323.035645 865.001892,321.036102 
	C865.001892,316.440247 865.001892,311.619110 865.001465,305.857361 
M943.966064,317.450439 
	C943.966064,319.886993 943.966064,322.323547 943.966064,324.687897 
	C948.560059,324.687897 952.611389,324.687897 957.233215,324.687897 
	C955.353516,319.315033 950.816223,323.213257 947.963745,320.895508 
	C947.963745,315.431763 947.963745,309.491333 947.963745,303.550903 
	C947.497986,303.269684 947.032227,302.988495 946.566406,302.707275 
	C945.700012,303.797668 944.198181,304.827026 944.086487,305.989868 
	C943.753601,309.455444 943.966431,312.973389 943.966064,317.450439 
z"/>
<path fill="#47DAE6" opacity="1.000000" stroke="none" 
	d="
M260.000000,87.245895 
	C292.822754,87.246033 325.145538,87.240837 357.468292,87.248978 
	C367.447571,87.251488 369.999512,89.770485 370.004059,99.549965 
	C370.007660,107.214127 370.043762,114.878540 369.992676,122.542366 
	C369.947632,129.293304 366.699707,132.583054 359.925171,132.871109 
	C358.927246,132.913544 357.926086,132.881378 356.926422,132.881378 
	C293.613770,132.881607 230.301132,132.883011 166.988495,132.880157 
	C156.535828,132.879684 153.996628,130.352417 153.995331,119.990578 
	C153.994385,112.493027 153.962936,104.995300 154.004730,97.497986 
	C154.044342,90.389267 157.091965,87.340622 164.531357,87.275528 
	C176.193329,87.173485 187.856827,87.246025 199.519684,87.245750 
	C219.513123,87.245277 239.506561,87.245674 260.000000,87.245895 
z"/>
<path fill="#45D9E6" opacity="1.000000" stroke="none" 
	d="
M216.000000,153.870300 
	C263.994965,153.870392 311.489899,153.866989 358.984863,153.873825 
	C368.276093,153.875153 370.057587,155.674286 370.062347,164.965897 
	C370.066528,173.131699 370.093781,181.297668 370.050781,189.463242 
	C370.020142,195.278809 367.628662,197.981323 361.875397,198.777267 
	C360.728088,198.936020 359.546875,198.873230 358.381317,198.873306 
	C304.553711,198.877075 250.726074,198.885773 196.898483,198.842056 
	C194.766525,198.840317 192.534409,198.645065 190.525650,197.994446 
	C187.087402,196.880798 184.955780,194.485687 184.960953,190.604965 
	C184.973602,181.106018 184.880539,171.606033 184.994431,162.108444 
	C185.059174,156.708969 187.931702,153.985260 193.502716,153.907181 
	C200.833878,153.804428 208.167465,153.874588 216.000000,153.870300 
z"/>
<path fill="#44D9E6" opacity="1.000000" stroke="none" 
	d="
M304.000000,264.999115 
	C283.339050,264.999054 263.178101,265.007935 243.017166,264.994202 
	C235.855225,264.989319 232.979111,262.173523 232.952805,255.121719 
	C232.920502,246.457642 232.903122,237.793060 232.959152,229.129227 
	C233.000000,222.817230 235.770828,220.001831 242.131622,219.995911 
	C281.786987,219.959076 321.442444,219.958588 361.097778,219.994064 
	C367.865601,220.000122 370.095398,222.295944 370.120239,228.981766 
	C370.153717,237.979095 370.157410,246.976761 370.116425,255.974030 
	C370.087494,262.327118 367.426117,264.975372 360.983917,264.986908 
	C342.156006,265.020599 323.327972,264.999023 304.000000,264.999115 
z"/>
<path fill="#44D9E6" opacity="1.000000" stroke="none" 
	d="
M261.821167,308.999268 
	C261.823273,303.839203 261.755585,299.177063 261.845978,294.517975 
	C261.953033,289.000671 264.642578,286.034302 270.040619,286.020416 
	C300.335754,285.942505 330.631256,285.946228 360.926361,286.027435 
	C366.016388,286.041077 369.063354,289.020050 369.157959,294.108307 
	C369.337372,303.759033 369.343323,313.418457 369.143951,323.068512 
	C369.041687,328.018860 365.732819,331.058807 360.837738,331.065796 
	C330.542450,331.109100 300.247070,331.113800 269.951782,331.062653 
	C264.899475,331.054108 262.007477,328.094513 261.864014,322.980896 
	C261.738037,318.489899 261.827179,313.992920 261.821167,308.999268 
z"/>
<path fill="#050505" opacity="1.000000" stroke="none" 
	d="
M671.112183,162.060608 
	C670.098083,160.094650 669.239868,158.480270 668.384460,156.864426 
	C662.704529,146.136307 662.704712,146.136215 649.750671,147.405701 
	C649.750671,150.447784 649.750671,153.556870 649.750671,156.665955 
	C649.750671,159.627014 649.750671,162.588074 649.750671,165.771454 
	C643.887756,165.771454 638.452148,165.771454 632.755432,165.771454 
	C632.755432,143.506500 632.755432,121.261818 632.755432,99.261787 
	C645.882324,99.261787 658.871155,98.453384 671.701416,99.531494 
	C681.049072,100.316978 687.978516,106.061455 690.082275,115.996384 
	C692.594116,127.857857 689.031799,136.690765 678.676453,143.897003 
	C680.948181,147.486343 683.237122,151.100235 685.523376,154.715775 
	C687.726868,158.200424 689.927734,161.686768 692.654053,166.002228 
	C686.229980,166.002228 680.508423,166.212250 674.825256,165.838928 
	C673.570312,165.756500 672.451172,163.608414 671.112183,162.060608 
M674.125916,119.971123 
	C673.327698,115.147659 670.013245,112.684166 665.606567,112.282997 
	C660.404785,111.809441 655.126892,112.171860 650.074280,112.171860 
	C650.074280,119.487091 650.074280,126.373512 650.074280,133.435364 
	C654.528320,133.435364 658.662842,133.583603 662.783142,133.404480 
	C671.354309,133.031876 674.380432,129.625229 674.125916,119.971123 
z"/>
<path fill="#050505" opacity="1.000000" stroke="none" 
	d="
M788.858521,225.009094 
	C786.271362,225.009094 784.153748,225.009094 781.769043,225.009094 
	C781.769043,231.437912 781.769043,237.380249 781.769043,243.663971 
	C775.971313,243.663971 770.441467,243.663971 764.702148,243.663971 
	C764.702148,221.464706 764.702148,199.360718 764.702148,176.439163 
	C767.125488,176.439163 769.534363,176.422379 771.942932,176.442169 
	C780.765747,176.514679 789.607727,176.260239 798.406616,176.759979 
	C811.180420,177.485489 819.330811,183.279495 821.855408,192.647766 
	C825.034668,204.445419 821.427856,214.158905 810.724365,221.968903 
	C815.190735,229.032990 819.676392,236.127487 824.654236,244.000473 
	C818.176697,244.000473 812.449280,244.107712 806.733948,243.894501 
	C805.785522,243.859116 804.589783,242.596832 804.022156,241.606934 
	C801.875366,237.863068 799.625916,234.125183 798.012512,230.142960 
	C796.323792,225.974976 793.767517,224.114670 788.858521,225.009094 
M804.292786,207.576263 
	C808.897949,199.114502 805.799561,191.118301 797.245605,190.229156 
	C792.212097,189.705948 787.079773,190.133621 782.039246,190.133621 
	C782.039246,197.405991 782.039246,204.285873 782.039246,211.472458 
	C784.787903,211.472458 787.248596,211.525482 789.706238,211.461258 
	C794.613586,211.333038 799.765503,212.200287 804.292786,207.576263 
z"/>
<path fill="#040404" opacity="1.000000" stroke="none" 
	d="
M565.604858,104.541153 
	C576.821289,97.211723 588.597534,96.137985 600.797363,99.982155 
	C616.524597,104.937813 625.299316,118.694077 624.093201,135.833176 
	C623.066162,150.425919 610.901001,163.420151 595.854309,166.011383 
	C584.721436,167.928635 574.315857,166.348297 564.988647,159.602371 
	C546.622925,146.319214 546.666321,117.512741 565.604858,104.541153 
M595.387817,113.855125 
	C593.802734,113.385063 592.245972,112.751259 590.627991,112.471848 
	C581.023865,110.813354 571.419556,117.689606 569.280090,127.678673 
	C567.031982,138.174835 573.238647,149.117691 582.938354,151.759369 
	C592.463745,154.353561 602.256348,149.001694 605.539856,139.407120 
	C608.941406,129.467957 605.467224,120.157089 595.387817,113.855125 
z"/>
<path fill="#050505" opacity="1.000000" stroke="none" 
	d="
M749.814819,166.009628 
	C733.539795,166.009628 717.740906,166.009628 701.720825,166.009628 
	C701.720825,143.513214 701.720825,121.390915 701.720825,98.853027 
	C719.076721,98.853027 736.440125,98.853027 754.060547,98.853027 
	C754.060547,103.122139 754.060547,107.386055 754.060547,112.032959 
	C742.342896,112.032959 730.742310,112.032959 718.950928,112.032959 
	C718.950928,116.502251 718.950928,120.594055 718.950928,125.152374 
	C729.414856,125.152374 739.822998,125.152374 750.580505,125.152374 
	C750.580505,129.829834 750.580505,134.058365 750.580505,138.861603 
	C740.165100,138.861603 729.611145,138.861603 718.912231,138.861603 
	C718.912231,143.539490 718.912231,147.649902 718.912231,152.248352 
	C730.893311,152.248352 742.790527,152.248352 755.028931,152.248352 
	C755.028931,156.968109 755.028931,161.209061 755.028931,166.009628 
	C753.484192,166.009628 751.887573,166.009628 749.814819,166.009628 
z"/>
<path fill="#050505" opacity="1.000000" stroke="none" 
	d="
M750.526978,230.497101 
	C752.110168,231.420334 754.090637,232.240341 754.217651,233.285553 
	C754.632996,236.704102 754.373474,240.204636 754.373474,243.839111 
	C736.359253,243.839111 718.751526,243.839111 700.820129,243.839111 
	C700.820129,221.592285 700.820129,199.380875 700.820129,176.803009 
	C718.157227,176.803009 735.503601,176.803009 753.083252,176.803009 
	C753.083252,181.179688 753.083252,185.441635 753.083252,190.063782 
	C741.322021,190.063782 729.726074,190.063782 717.944824,190.063782 
	C717.944824,194.508743 717.944824,198.597473 717.944824,203.140793 
	C728.404785,203.140793 738.802368,203.140793 749.565308,203.140793 
	C749.565308,207.801743 749.565308,212.025391 749.565308,216.813736 
	C739.216553,216.813736 728.673645,216.813736 718.001831,216.813736 
	C718.001831,221.608032 718.001831,225.840729 718.001831,230.497009 
	C728.856201,230.497009 739.465820,230.497009 750.526978,230.497101 
z"/>
<path fill="#040404" opacity="1.000000" stroke="none" 
	d="
M469.784180,187.771851 
	C475.712921,177.687210 484.334686,174.551239 495.190125,176.418335 
	C496.262024,176.602692 497.393097,176.443024 499.645111,176.443024 
	C490.864777,186.257233 482.824371,195.244370 474.585571,204.453278 
	C483.376556,217.485077 492.078369,230.384705 501.265564,244.003876 
	C494.493744,244.003876 488.420471,244.165298 482.369507,243.869965 
	C481.134003,243.809662 479.688568,242.238098 478.839752,241.015991 
	C473.541595,233.388077 468.385498,225.661514 463.285950,218.120865 
	C452.698853,223.944611 453.318481,233.660583 454.186096,243.666687 
	C448.270844,243.666687 442.734222,243.666687 437.068237,243.666687 
	C437.068237,221.338196 437.068237,199.106140 437.068237,176.698929 
	C442.738861,176.698929 448.162842,176.698929 453.833649,176.698929 
	C453.833649,186.075592 453.833649,195.201630 453.833649,205.769958 
	C459.612579,199.249420 464.580841,193.643539 469.784180,187.771851 
z"/>
<path fill="#050505" opacity="1.000000" stroke="none" 
	d="
M525.259644,229.914429 
	C537.464294,230.345688 549.415039,230.345688 561.554688,230.345688 
	C561.554688,235.166367 561.554688,239.268631 561.554688,243.691376 
	C543.738831,243.691376 526.018616,243.691376 508.058105,243.691376 
	C508.058105,221.421402 508.058105,199.180527 508.058105,176.688522 
	C525.457764,176.688522 542.723267,176.688522 560.344360,176.688522 
	C560.344360,181.003220 560.344360,185.217941 560.344360,189.818420 
	C548.755249,189.818420 537.167664,189.818420 525.271484,189.818420 
	C525.271484,194.403915 525.271484,198.621445 525.271484,203.278625 
	C535.724121,203.278625 546.132629,203.278625 556.812561,203.278625 
	C556.812561,207.941284 556.812561,212.179886 556.812561,216.806732 
	C546.354309,216.806732 535.932983,216.806732 525.005798,216.806732 
	C525.005798,221.273743 525.005798,225.378464 525.259644,229.914429 
z"/>
<path fill="#050505" opacity="1.000000" stroke="none" 
	d="
M602.007568,216.936890 
	C597.528076,216.936890 593.547302,216.936890 589.263489,216.936890 
	C589.263489,221.368805 589.263489,225.607529 589.263489,230.438950 
	C601.240845,230.438950 613.277039,230.438950 625.525757,230.438950 
	C625.525757,235.118530 625.525757,239.216904 625.525757,243.664215 
	C607.788269,243.664215 590.071045,243.664215 572.085571,243.664215 
	C572.085571,221.465454 572.085571,199.223038 572.085571,176.708786 
	C589.402588,176.708786 606.668335,176.708786 624.317261,176.708786 
	C624.317261,180.953491 624.317261,185.164658 624.317261,189.767029 
	C612.802551,189.767029 601.217285,189.767029 589.296997,189.767029 
	C589.296997,194.352890 589.296997,198.566925 589.296997,203.230316 
	C599.676025,203.230316 610.079773,203.230316 620.784058,203.230316 
	C620.784058,207.896561 620.784058,212.135147 620.784058,216.936890 
	C614.722290,216.936890 608.614258,216.936890 602.007568,216.936890 
z"/>
<path fill="#040404" opacity="1.000000" stroke="none" 
	d="
M464.705322,124.449585 
	C468.875549,125.786560 472.771790,126.742485 476.471771,128.197525 
	C484.216003,131.242981 489.152802,136.569901 489.441650,145.354721 
	C489.715027,153.669937 485.580536,160.003342 477.382629,163.715454 
	C464.217529,169.676758 443.019531,165.887527 431.854401,155.420578 
	C433.889709,151.371948 435.961487,147.250763 437.593079,144.005203 
	C445.192078,146.893204 452.353729,150.176071 459.845734,152.285858 
	C465.903900,153.991882 470.435425,151.685349 471.217102,148.041977 
	C472.056335,144.130310 469.343750,141.467560 462.716431,139.428406 
	C457.483948,137.818451 452.259308,136.161697 447.111237,134.303894 
	C440.586975,131.949448 436.725128,127.276543 435.972260,120.301903 
	C435.144867,112.637131 437.966431,106.581558 444.456940,102.392982 
	C452.684387,97.083496 461.917206,96.894890 471.014801,98.456985 
	C477.245270,99.526772 483.196014,102.225296 489.744720,104.349068 
	C487.100555,109.775627 485.026123,114.032936 483.153442,117.876236 
	C476.866058,115.813011 471.119141,113.733154 465.247589,112.101662 
	C463.083679,111.500389 460.505524,111.503624 458.341522,112.078651 
	C456.707611,112.512833 454.566864,114.095299 454.234955,115.532379 
	C453.888519,117.032234 454.960266,119.632118 456.262787,120.571823 
	C458.622833,122.274529 461.614471,123.101837 464.705322,124.449585 
z"/>
<path fill="#040404" opacity="1.000000" stroke="none" 
	d="
M662.982422,225.006622 
	C659.534424,225.006653 656.570862,225.006653 653.201294,225.006653 
	C653.201294,231.407578 653.201294,237.477753 653.201294,243.770813 
	C647.378540,243.770813 641.965149,243.770813 636.270996,243.770813 
	C636.270996,221.552231 636.270996,199.334732 636.270996,175.878098 
	C649.414062,176.508621 662.732849,176.176895 675.729736,178.063324 
	C687.123230,179.716995 692.900452,188.822418 692.656616,200.542175 
	C692.403198,212.725311 685.903931,221.436493 674.841675,223.870712 
	C671.145752,224.683975 667.263794,224.652115 662.982422,225.006622 
M672.319824,191.994629 
	C666.083740,191.061600 659.847656,190.128586 653.387207,189.161987 
	C653.387207,197.410309 653.387207,204.299225 653.387207,211.420364 
	C657.475525,211.420364 661.284363,211.484283 665.090149,211.403915 
	C669.682190,211.306946 673.895142,209.997589 675.512817,205.281464 
	C677.075684,200.725128 677.022339,196.085602 672.319824,191.994629 
z"/>
<path fill="#030303" opacity="1.000000" stroke="none" 
	d="
M529.008972,122.041275 
	C529.008972,136.827606 529.008972,151.121262 529.008972,165.709808 
	C523.404053,165.709808 517.996216,165.709808 512.067688,165.709808 
	C512.067688,148.174026 512.067688,130.481049 512.067688,112.350723 
	C505.148010,112.350723 498.730957,112.350723 492.034332,112.350723 
	C492.034332,107.518227 492.034332,103.127380 492.034332,98.521095 
	C510.959045,98.521095 529.715698,98.521095 548.880615,98.521095 
	C548.880615,102.847183 548.880615,107.219696 548.880615,111.975204 
	C542.602356,111.975204 536.186768,111.975204 529.008972,111.975204 
	C529.008972,115.396477 529.008972,118.472542 529.008972,122.041275 
z"/>
<path fill="#191919" opacity="1.000000" stroke="none" 
	d="
M441.590698,320.223755 
	C439.849152,317.083252 438.299194,314.230011 436.339539,310.622589 
	C435.909943,315.973114 435.571381,320.420593 435.080750,324.851196 
	C435.069489,324.952759 433.339569,324.863983 432.247742,324.863983 
	C432.247742,317.587219 432.247742,310.646454 432.247742,302.690887 
	C440.338318,304.299438 439.387360,312.889587 443.955322,316.522949 
	C448.643982,312.971436 447.597504,304.264923 455.905701,302.795441 
	C455.905701,309.841522 456.011780,316.142334 455.801331,322.432587 
	C455.766296,323.480286 454.353577,324.481934 453.577515,325.504852 
	C453.093567,325.240601 452.609619,324.976379 452.125671,324.712158 
	C452.125671,320.324463 452.125671,315.936768 452.125671,311.549072 
	C451.853668,311.474304 451.581635,311.399506 451.309631,311.324738 
	C449.693329,314.289825 448.105133,317.270691 446.452026,320.215149 
	C445.079529,322.659851 443.531860,323.471161 441.590698,320.223755 
z"/>
<path fill="#1A1A1A" opacity="1.000000" stroke="none" 
	d="
M499.730591,317.303162 
	C497.965179,315.082336 496.422455,313.146729 494.054626,310.175842 
	C494.054626,313.466095 494.054626,315.672089 494.054626,317.878082 
	C494.054626,320.178558 494.054626,322.479034 494.054626,324.779510 
	C493.670380,325.027649 493.286102,325.275757 492.901855,325.523865 
	C492.047913,324.628601 490.484894,323.757111 490.453949,322.834259 
	C490.238251,316.400269 490.339996,309.955597 490.339996,301.888824 
	C497.201050,306.056885 499.750549,312.435272 505.102600,317.490540 
	C505.102600,314.117188 504.869995,311.399139 505.176605,308.743347 
	C505.419006,306.644257 503.449310,302.733307 508.703888,303.245514 
	C508.703888,310.528900 508.703888,317.476929 508.703888,324.921143 
	C503.496674,325.116394 502.794281,319.979004 499.730591,317.303162 
z"/>
<path fill="#141414" opacity="1.000000" stroke="none" 
	d="
M806.000122,317.842712 
	C802.718872,324.035309 798.747925,326.109863 792.957947,324.989105 
	C788.247620,324.077332 784.987122,320.224457 784.592773,315.104065 
	C784.075928,308.393585 788.447021,303.307983 794.983704,303.014709 
	C801.567810,302.719269 806.425781,307.303162 806.547180,314.013763 
	C806.567993,315.162079 806.244263,316.316650 806.000122,317.842712 
M790.885559,308.256927 
	C787.877502,311.987000 787.576721,316.289551 790.751587,319.501617 
	C792.323669,321.092072 796.378967,321.531281 798.734985,320.751526 
	C802.705261,319.437561 802.644958,315.376099 802.013123,311.835052 
	C801.149109,306.993591 797.386292,305.601715 790.885559,308.256927 
z"/>
<path fill="#171717" opacity="1.000000" stroke="none" 
	d="
M827.034790,318.607300 
	C828.433533,320.716827 829.638306,322.488647 830.843079,324.260498 
	C830.523010,324.686432 830.202942,325.112366 829.882874,325.538300 
	C828.133179,324.332367 826.175537,323.336639 824.688538,321.865234 
	C822.976624,320.171326 821.680725,318.057037 820.204102,316.125305 
	C819.698242,316.352173 819.192383,316.579071 818.686523,316.805939 
	C818.515442,319.337250 818.344421,321.868561 818.148743,324.763794 
	C816.980103,324.818420 815.782654,324.874420 814.382080,324.939911 
	C814.382080,317.697388 814.382080,310.771942 814.382080,303.089050 
	C817.744934,303.262756 821.047485,303.028290 824.163147,303.683014 
	C829.738586,304.854736 831.336060,310.306793 827.137512,314.127441 
	C825.230469,315.862854 825.456726,316.776764 827.034790,318.607300 
M825.253784,310.360962 
	C824.942383,305.504486 821.762512,306.281342 818.543213,306.656982 
	C818.543213,309.055084 818.543213,311.123840 818.543213,314.739105 
	C821.270996,313.243195 823.177795,312.197540 825.253784,310.360962 
z"/>
<path fill="#171717" opacity="1.000000" stroke="none" 
	d="
M551.478516,303.132568 
	C554.165283,303.376068 556.509949,303.451233 558.694763,304.081055 
	C559.667542,304.361511 560.318237,305.759155 561.115112,306.649750 
	C559.894348,306.863678 558.559937,307.508789 557.471130,307.221954 
	C550.149048,305.293060 545.639038,309.002777 546.895447,316.092621 
	C547.627136,320.221649 551.196045,322.778381 555.272766,321.806763 
	C556.285156,321.565491 557.412109,320.476379 557.797668,319.503906 
	C557.984863,319.031708 556.584167,317.927368 555.898560,317.112427 
	C555.297485,316.397980 554.691162,315.688049 553.599304,314.401123 
	C555.546021,314.206024 556.507385,314.036957 557.469727,314.031097 
	C558.760864,314.023254 560.052795,314.141571 561.738953,314.225342 
	C561.074524,318.134644 564.325867,322.877960 558.095581,324.716095 
	C551.946228,326.530426 545.950378,324.312164 543.543701,319.224274 
	C541.157104,314.178864 542.648254,307.751190 546.981628,304.962952 
	C548.214661,304.169556 549.701111,303.770111 551.478516,303.132568 
z"/>
<path fill="#222222" opacity="1.000000" stroke="none" 
	d="
M682.060669,304.097198 
	C681.151917,305.175690 680.226013,306.290314 679.140686,306.476868 
	C677.226135,306.805939 675.214417,306.569000 672.952271,306.569000 
	C672.952271,308.502197 672.952271,310.078033 672.952271,312.061523 
	C674.336304,312.166168 675.806702,312.091766 677.168945,312.440338 
	C678.216736,312.708435 679.128418,313.508789 680.100586,314.072510 
	C679.131897,314.639252 678.222900,315.465607 677.179077,315.705414 
	C675.937134,315.990814 674.579468,315.772614 672.963257,315.772614 
	C672.963257,317.802979 672.963257,319.536957 672.963257,321.096222 
	C675.737427,323.320251 680.564209,319.322174 682.650330,324.791809 
	C677.667664,324.791809 673.264404,324.791809 668.587280,324.791809 
	C668.587280,317.670532 668.587280,310.615295 668.587280,302.859192 
	C673.255615,303.157806 677.613647,303.436584 682.060669,304.097198 
z"/>
<path fill="#171717" opacity="1.000000" stroke="none" 
	d="
M725.699585,311.825714 
	C727.726257,312.261353 729.412048,312.198608 731.021545,312.519012 
	C731.734558,312.660919 732.293396,313.577728 732.922180,314.142761 
	C732.250122,314.671539 731.624634,315.563629 730.896790,315.656769 
	C729.149170,315.880432 727.353638,315.729156 725.453125,315.729156 
	C725.453125,317.945526 725.453125,319.530243 725.453125,320.840576 
	C728.119873,323.731110 733.477722,318.964630 735.301514,324.795959 
	C730.307129,324.795959 725.892517,324.795959 721.283936,324.795959 
	C721.283936,317.629883 721.283936,310.711578 721.283936,303.456116 
	C725.788757,303.456116 730.182312,303.456116 735.643250,303.456116 
	C733.217834,308.630829 728.307739,305.100800 725.327698,307.405457 
	C725.327698,308.587708 725.327698,310.035461 725.699585,311.825714 
z"/>
<path fill="#141414" opacity="1.000000" stroke="none" 
	d="
M534.031250,317.804565 
	C534.963379,320.292938 535.790710,322.412994 536.618042,324.533081 
	C536.340393,324.873260 536.062744,325.213409 535.785095,325.553589 
	C534.466980,324.610443 532.393188,323.917633 531.981201,322.674255 
	C530.990906,319.685181 529.007568,319.637360 526.596069,319.749939 
	C524.043823,319.869080 521.289062,319.085480 520.378540,322.916656 
	C520.114319,324.028290 518.042603,324.710358 516.799500,325.589355 
	C516.456543,325.248077 516.113525,324.906799 515.770569,324.565552 
	C518.313538,318.024445 520.780457,311.451538 523.489075,304.979767 
	C523.855591,304.103912 525.485657,303.194244 526.438354,303.283569 
	C527.401367,303.373871 528.638428,304.512146 529.079773,305.494781 
	C530.838501,309.411011 532.333679,313.445557 534.031250,317.804565 
M523.904419,313.576202 
	C523.668030,314.590790 523.431641,315.605377 523.170593,316.725830 
	C525.369568,316.725830 527.168152,316.725830 529.512756,316.725830 
	C528.487854,313.759979 527.567261,311.095978 526.358032,307.596649 
	C525.378723,309.866730 524.741455,311.343903 523.904419,313.576202 
z"/>
<path fill="#141414" opacity="1.000000" stroke="none" 
	d="
M478.501465,311.385803 
	C480.329681,315.998657 481.973083,320.270721 483.616486,324.542755 
	C483.323029,324.883789 483.029541,325.224823 482.736084,325.565857 
	C481.430176,324.604462 479.329895,323.874420 478.969604,322.637573 
	C477.953308,319.148804 475.451141,319.765503 473.056274,319.776276 
	C470.826141,319.786316 468.467499,319.138702 467.560883,322.495239 
	C467.216766,323.769348 465.151062,324.578461 463.870026,325.599518 
	C463.506073,325.252258 463.142151,324.905029 462.778229,324.557770 
	C465.255615,318.158508 467.663757,311.730591 470.284302,305.390503 
	C470.681793,304.428925 472.143005,303.201843 472.974792,303.297119 
	C474.106079,303.426666 475.449005,304.502289 476.082275,305.547302 
	C477.094574,307.217743 477.598022,309.196564 478.501465,311.385803 
M471.902344,316.875854 
	C473.295410,316.790924 474.688477,316.705963 476.542267,316.592926 
	C475.461243,313.559387 474.544220,310.986115 473.627228,308.412811 
	C473.212158,308.360382 472.797119,308.307983 472.382080,308.255585 
	C471.947723,311.121399 471.513367,313.987244 471.902344,316.875854 
z"/>
<path fill="#131313" opacity="1.000000" stroke="none" 
	d="
M622.780273,318.766266 
	C624.600586,314.068054 626.193481,309.701965 628.052368,305.452240 
	C628.479858,304.474945 629.893494,303.213013 630.723267,303.301544 
	C631.866516,303.423523 633.425598,304.476318 633.870117,305.526672 
	C636.515137,311.776672 638.890198,318.140839 640.493408,325.511322 
	C639.185974,324.578735 637.087769,323.884155 636.721802,322.668182 
	C635.691284,319.244934 633.253174,319.718201 630.819031,319.767151 
	C628.595337,319.811859 626.227539,319.128906 625.278625,322.452209 
	C624.911377,323.738373 622.900208,324.555145 621.638000,325.585754 
	C621.280212,325.237640 620.922424,324.889557 620.564697,324.541443 
	C621.259644,322.741180 621.954529,320.940948 622.780273,318.766266 
M631.814514,309.494629 
	C631.318665,309.340424 630.402161,309.018311 630.387146,309.056061 
	C629.419128,311.480591 628.524414,313.934387 627.525085,316.652100 
	C630.036377,316.652100 631.955444,316.652100 634.291687,316.652100 
	C633.468933,314.306335 632.764465,312.297913 631.814514,309.494629 
z"/>
<path fill="#121212" opacity="1.000000" stroke="none" 
	d="
M580.526672,303.135162 
	C581.887268,303.754150 582.805786,304.372894 583.724304,304.991608 
	C582.841553,305.493347 581.993103,306.334869 581.069092,306.428314 
	C578.935852,306.644012 576.765930,306.496796 574.325439,306.496796 
	C574.325439,308.415375 574.325439,310.161591 574.325439,312.453705 
	C576.053711,312.453705 577.830200,312.300201 579.557617,312.524750 
	C580.312256,312.622833 580.966248,313.494873 581.665955,314.015503 
	C581.009094,314.580841 580.409668,315.524200 579.683594,315.634552 
	C578.063110,315.880859 576.379395,315.711487 574.380676,315.711487 
	C574.380676,317.724213 574.380676,319.605194 574.380676,321.392609 
	C577.220276,323.127777 581.686279,319.694702 584.494019,324.709412 
	C579.255615,324.709412 574.881348,324.709412 570.219727,324.709412 
	C570.219727,317.753479 570.219727,310.713593 570.219727,303.134888 
	C573.544617,303.134888 576.814575,303.134888 580.526672,303.135162 
z"/>
<path fill="#121212" opacity="1.000000" stroke="none" 
	d="
M881.341553,324.626892 
	C881.002136,317.366608 881.002136,310.450287 881.002136,303.137817 
	C885.042297,303.137817 888.658997,303.036011 892.261963,303.213196 
	C893.106934,303.254730 893.905457,304.239868 894.725342,304.790894 
	C893.909973,305.358856 893.135742,306.328308 892.271301,306.416748 
	C890.009338,306.648254 887.708008,306.494781 885.232605,306.494781 
	C885.232605,308.628174 885.232605,310.400421 885.232605,311.430389 
	C887.977905,312.487183 890.322327,313.389679 892.666748,314.292145 
	C890.316101,315.001312 887.965515,315.710510 885.254517,316.528412 
	C885.254517,317.695679 885.254517,319.480377 885.254517,321.224243 
	C887.947815,323.525269 892.997131,319.209900 895.268738,324.970886 
	C890.258423,324.970886 885.969666,324.970886 881.341553,324.626892 
z"/>
<path fill="#141414" opacity="1.000000" stroke="none" 
	d="
M934.146301,313.737946 
	C937.545349,317.039551 937.018005,320.270142 934.397400,323.171509 
	C931.679138,326.181030 926.934692,325.815887 921.074036,321.802368 
	C923.007568,321.267700 924.171631,320.640930 925.290771,320.712830 
	C926.715637,320.804352 928.145142,321.874512 929.495056,321.740662 
	C930.528931,321.638123 931.995483,320.465973 932.244446,319.504211 
	C932.465820,318.648804 931.390015,317.342377 930.664124,316.408020 
	C930.326477,315.973419 929.451416,315.973907 928.836792,315.734222 
	C923.302673,313.576355 921.617798,311.064331 923.049622,307.127502 
	C924.423584,303.349731 929.358032,301.939148 934.137085,303.996887 
	C934.723450,304.249359 935.214966,304.721893 937.056519,305.996094 
	C934.885376,306.534027 933.753113,306.870209 932.598572,307.088074 
	C930.700623,307.446136 927.474304,307.216614 927.117859,308.133087 
	C925.831604,311.440643 929.192627,311.391724 931.149841,312.263428 
	C932.054749,312.666443 932.943787,313.105255 934.146301,313.737946 
z"/>
<path fill="#131313" opacity="1.000000" stroke="none" 
	d="
M911.304321,312.696960 
	C915.998352,315.609436 916.957092,318.653259 914.588867,322.162231 
	C911.987183,326.017120 906.570251,326.170105 900.140442,321.664856 
	C902.303955,321.197083 903.497253,320.674683 904.646790,320.757660 
	C906.075012,320.860809 907.518677,321.883331 908.858154,321.718140 
	C909.907043,321.588806 911.379150,320.387604 911.602417,319.418274 
	C911.799194,318.563721 910.631104,317.284149 909.859192,316.365967 
	C909.497009,315.935242 908.638123,315.940338 908.022278,315.701691 
	C902.561584,313.585815 900.773438,310.881836 902.300598,307.071960 
	C903.766113,303.415771 908.412842,301.995331 912.983276,303.855469 
	C913.719177,304.154938 914.362793,304.681152 916.146912,305.776703 
	C914.226257,306.479767 913.213379,306.995300 912.140198,307.212219 
	C910.124634,307.619629 908.074219,307.854462 906.038269,308.161072 
	C907.677246,309.624268 909.316223,311.087524 911.304321,312.696960 
z"/>
<path fill="#131313" opacity="1.000000" stroke="none" 
	d="
M690.683838,305.627960 
	C695.680786,302.081024 697.782166,302.087006 702.561279,306.721527 
	C701.093689,306.721527 699.590332,306.520844 698.168030,306.774597 
	C696.552734,307.062744 695.010010,307.757416 693.435730,308.275330 
	C694.365479,309.440308 695.060791,311.109253 696.270691,311.672028 
	C699.407043,313.130920 703.580383,313.675446 702.995728,318.301239 
	C702.726013,320.435059 701.187439,323.145355 699.401611,324.195312 
	C695.824829,326.298248 692.053162,325.374725 688.070374,321.857208 
	C689.701965,321.273834 690.765259,320.608246 691.833984,320.599335 
	C692.734375,320.591766 693.741150,321.827301 694.523926,321.664032 
	C696.100037,321.335297 697.555542,320.428772 699.060852,319.760651 
	C698.119019,318.479065 697.452759,316.588470 696.189575,316.016693 
	C689.071838,312.794983 688.442078,311.900146 690.683838,305.627960 
z"/>
<path fill="#121212" opacity="1.000000" stroke="none" 
	d="
M601.410034,307.592285 
	C604.541260,303.000153 608.820007,301.710175 612.592102,304.044556 
	C613.270020,304.464081 613.595032,305.453613 614.082947,306.179962 
	C613.187744,306.527832 612.295410,307.145721 611.396667,307.155060 
	C610.279358,307.166718 609.055908,306.266449 608.063538,306.511169 
	C606.970947,306.780640 605.788391,307.740967 605.255798,308.729431 
	C605.027832,309.152496 606.222534,310.543304 606.999084,311.239899 
	C607.571594,311.753418 608.684937,311.662048 609.261047,312.173737 
	C611.237671,313.929260 614.013550,315.554260 614.674500,317.769196 
	C615.170166,319.430115 613.319702,323.224487 611.735107,323.758545 
	C608.898621,324.714478 605.475342,323.932770 602.297668,323.862915 
	C602.149231,323.859619 601.914795,323.748260 601.871460,323.631256 
	C601.572754,322.825470 601.314453,322.004761 601.043152,321.188873 
	C601.853271,320.938202 602.716553,320.380402 603.461060,320.509125 
	C604.568054,320.700470 605.718872,321.931793 606.621521,321.723938 
	C608.164856,321.368469 609.530334,320.240784 610.970520,319.437378 
	C610.040771,318.282806 609.338623,316.556213 608.139343,316.079132 
	C604.290405,314.547882 600.369080,313.382568 601.410034,307.592285 
z"/>
<path fill="#222222" opacity="1.000000" stroke="none" 
	d="
M766.040649,325.050079 
	C765.163818,323.770447 764.393127,322.510468 764.363586,321.233398 
	C764.229797,315.442657 764.305054,309.647125 764.305054,303.473938 
	C768.851013,303.473938 773.081299,303.473938 777.393188,303.473938 
	C778.009949,306.192139 778.009949,306.192139 769.016052,306.812561 
	C769.016052,308.656097 769.016052,310.530212 769.016052,312.882690 
	C771.019897,312.882690 772.986206,312.741394 774.911804,312.959137 
	C775.587952,313.035614 776.164307,313.993408 776.786255,314.548798 
	C776.128052,315.083405 775.515930,315.991028 774.802490,316.079285 
	C773.009949,316.301086 771.171509,316.152618 768.642212,316.152618 
	C768.642212,318.450043 768.857117,320.560608 768.544434,322.589844 
	C768.404541,323.497894 767.206116,324.242889 766.040649,325.050079 
z"/>
<path fill="#1A1A1A" opacity="1.000000" stroke="none" 
	d="
M852.280457,306.652466 
	C850.379944,306.794800 848.932861,306.893036 847.258911,307.006683 
	C847.258911,313.097534 847.258911,318.857727 847.258911,324.779175 
	C845.783630,324.779175 844.568420,324.779175 843.061340,324.779175 
	C843.061340,318.758362 843.061340,312.993500 843.061340,307.371399 
	C842.508545,307.077820 842.253296,306.899292 841.970398,306.799011 
	C840.196106,306.170197 838.415527,305.558807 836.637085,304.941650 
	C838.384033,304.331879 840.097351,303.358032 841.885315,303.192810 
	C845.006775,302.904358 848.176147,303.044830 851.321838,303.134308 
	C854.239746,303.217285 854.997742,304.339111 852.280457,306.652466 
z"/>
<path fill="#171717" opacity="1.000000" stroke="none" 
	d="
M969.530273,318.265778 
	C967.116699,313.156799 964.708679,308.479004 961.942627,303.105713 
	C969.041382,302.890717 968.127747,309.943665 971.609253,312.537476 
	C975.172424,310.272247 973.881775,302.645172 981.502625,303.252838 
	C979.839722,306.095673 978.125549,308.356018 977.125488,310.897400 
	C975.718384,314.473236 974.341492,318.197815 973.890381,321.971039 
	C973.507690,325.172363 972.404602,325.551270 969.535828,324.565796 
	C969.535828,322.647125 969.535828,320.672028 969.530273,318.265778 
z"/>
<path fill="#080808" opacity="1.000000" stroke="none" 
	d="
M747.017212,321.907715 
	C746.112793,323.407654 745.208618,324.443329 744.304382,325.479034 
	C743.918762,325.197479 743.533081,324.915924 743.147461,324.634399 
	C743.147461,317.693237 743.147461,310.752075 743.147461,303.181854 
	C747.097717,303.181854 751.023865,303.124969 754.944702,303.242554 
	C755.540222,303.260437 756.111511,304.088257 756.693970,304.541443 
	C756.115662,305.171631 755.579224,306.291962 754.951660,306.345520 
	C752.480835,306.556488 749.981384,306.432007 747.255676,306.432007 
	C747.255676,308.582336 747.255676,310.508484 747.255676,312.935974 
	C749.277893,312.935974 751.233704,312.801849 753.153198,313.007141 
	C753.845154,313.081116 754.449890,313.970245 755.094421,314.487427 
	C754.467346,315.023315 753.886230,315.938843 753.204163,316.021515 
	C751.407227,316.239197 749.566467,316.095123 747.017395,316.095123 
	C747.017395,317.952332 747.017395,319.697906 747.017212,321.907715 
z"/>
<path fill="#262626" opacity="1.000000" stroke="none" 
	d="
M652.608154,307.373474 
	C652.608215,312.262970 652.608215,316.694702 652.608215,320.323242 
	C655.182617,323.400879 660.490906,318.791382 661.333557,324.906342 
	C656.915344,324.906342 652.986938,324.906342 648.673340,324.906342 
	C648.673340,317.872833 648.673340,310.868622 648.673340,303.842560 
	C652.172424,303.073914 652.172424,303.073914 652.608154,307.373474 
z"/>
<path fill="#050505" opacity="1.000000" stroke="none" 
	d="
M865.001709,306.327667 
	C865.001892,311.619110 865.001892,316.440247 865.001892,321.036102 
	C867.746338,323.035645 872.381775,319.544922 874.124084,324.822937 
	C869.522644,324.822937 865.559021,324.822937 861.279785,324.822937 
	C861.279785,317.789581 861.279785,310.728516 861.279785,303.667450 
	C861.614136,303.360748 861.948486,303.054016 862.282837,302.747314 
	C863.189026,303.783997 864.095215,304.820679 865.001709,306.327667 
z"/>
<path fill="#050505" opacity="1.000000" stroke="none" 
	d="
M943.966064,316.960663 
	C943.966431,312.973389 943.753601,309.455444 944.086487,305.989868 
	C944.198181,304.827026 945.700012,303.797668 946.566406,302.707275 
	C947.032227,302.988495 947.497986,303.269684 947.963745,303.550903 
	C947.963745,309.491333 947.963745,315.431763 947.963745,320.895508 
	C950.816223,323.213257 955.353516,319.315033 957.233215,324.687897 
	C952.611389,324.687897 948.560059,324.687897 943.966064,324.687897 
	C943.966064,322.323547 943.966064,319.886993 943.966064,316.960663 
z"/>
<path fill="#FDFDFD" opacity="1.000000" stroke="none" 
	d="
M674.185059,120.394333 
	C674.380432,129.625229 671.354309,133.031876 662.783142,133.404480 
	C658.662842,133.583603 654.528320,133.435364 650.074280,133.435364 
	C650.074280,126.373512 650.074280,119.487091 650.074280,112.171860 
	C655.126892,112.171860 660.404785,111.809441 665.606567,112.282997 
	C670.013245,112.684166 673.327698,115.147659 674.185059,120.394333 
z"/>
<path fill="#FDFDFD" opacity="1.000000" stroke="none" 
	d="
M804.037048,207.889099 
	C799.765503,212.200287 794.613586,211.333038 789.706238,211.461258 
	C787.248596,211.525482 784.787903,211.472458 782.039246,211.472458 
	C782.039246,204.285873 782.039246,197.405991 782.039246,190.133621 
	C787.079773,190.133621 792.212097,189.705948 797.245605,190.229156 
	C805.799561,191.118301 808.897949,199.114502 804.037048,207.889099 
z"/>
<path fill="#FBFBFB" opacity="1.000000" stroke="none" 
	d="
M595.745850,113.986908 
	C605.467224,120.157089 608.941406,129.467957 605.539856,139.407120 
	C602.256348,149.001694 592.463745,154.353561 582.938354,151.759369 
	C573.238647,149.117691 567.031982,138.174835 569.280090,127.678673 
	C571.419556,117.689606 581.023865,110.813354 590.627991,112.471848 
	C592.245972,112.751259 593.802734,113.385063 595.745850,113.986908 
z"/>
<path fill="#FBFBFB" opacity="1.000000" stroke="none" 
	d="
M672.649048,192.218201 
	C677.022339,196.085602 677.075684,200.725128 675.512817,205.281464 
	C673.895142,209.997589 669.682190,211.306946 665.090149,211.403915 
	C661.284363,211.484283 657.475525,211.420364 653.387207,211.420364 
	C653.387207,204.299225 653.387207,197.410309 653.387207,189.161987 
	C659.847656,190.128586 666.083740,191.061600 672.649048,192.218201 
z"/>
<path fill="#F7F7F7" opacity="1.000000" stroke="none" 
	d="
M791.216003,307.997223 
	C797.386292,305.601715 801.149109,306.993591 802.013123,311.835052 
	C802.644958,315.376099 802.705261,319.437561 798.734985,320.751526 
	C796.378967,321.531281 792.323669,321.092072 790.751587,319.501617 
	C787.576721,316.289551 787.877502,311.987000 791.216003,307.997223 
z"/>
<path fill="#E1E1E1" opacity="1.000000" stroke="none" 
	d="
M825.169189,310.756409 
	C823.177795,312.197540 821.270996,313.243195 818.543213,314.739105 
	C818.543213,311.123840 818.543213,309.055084 818.543213,306.656982 
	C821.762512,306.281342 824.942383,305.504486 825.169189,310.756409 
z"/>
<path fill="#E4E4E4" opacity="1.000000" stroke="none" 
	d="
M524.004272,313.198608 
	C524.741455,311.343903 525.378723,309.866730 526.358032,307.596649 
	C527.567261,311.095978 528.487854,313.759979 529.512756,316.725830 
	C527.168152,316.725830 525.369568,316.725830 523.170593,316.725830 
	C523.431641,315.605377 523.668030,314.590790 524.004272,313.198608 
z"/>
<path fill="#E4E4E4" opacity="1.000000" stroke="none" 
	d="
M471.490692,316.864471 
	C471.513367,313.987244 471.947723,311.121399 472.382080,308.255585 
	C472.797119,308.307983 473.212158,308.360382 473.627228,308.412811 
	C474.544220,310.986115 475.461243,313.559387 476.542267,316.592926 
	C474.688477,316.705963 473.295410,316.790924 471.490692,316.864471 
z"/>
<path fill="#E1E1E1" opacity="1.000000" stroke="none" 
	d="
M631.937256,309.892090 
	C632.764465,312.297913 633.468933,314.306335 634.291687,316.652100 
	C631.955444,316.652100 630.036377,316.652100 627.525085,316.652100 
	C628.524414,313.934387 629.419128,311.480591 630.387146,309.056061 
	C630.402161,309.018311 631.318665,309.340424 631.937256,309.892090 
z"/>
</svg>